<svg width="77" height="77" viewBox="0 0 77 77" fill="none" xmlns="http://www.w3.org/2000/svg">
<path fill-rule="evenodd" clip-rule="evenodd" d="M55.3476 28.7671C54.7476 28.1623 54.7476 27.1867 55.3476 26.5831L58.29 23.6311C58.4319 23.4865 58.6012 23.3716 58.788 23.2932C58.9747 23.2148 59.1753 23.1744 59.3778 23.1744C59.5804 23.1744 59.7809 23.2148 59.9677 23.2932C60.1545 23.3716 60.3238 23.4865 60.4656 23.6311C61.0656 24.2359 61.0656 25.2115 60.4656 25.8151L57.5232 28.7671C57.3814 28.9117 57.2121 29.0265 57.0253 29.1049C56.8385 29.1833 56.638 29.2237 56.4354 29.2237C56.2329 29.2237 56.0323 29.1833 55.8456 29.1049C55.6588 29.0265 55.4895 28.9117 55.3476 28.7671ZM69.6 45.6967C69.6 44.8447 68.91 44.1547 68.058 44.1547H63.882C63.0312 44.1547 62.3412 44.8447 62.3412 45.6967C62.3379 45.9013 62.3753 46.1045 62.4513 46.2945C62.5273 46.4845 62.6404 46.6575 62.7839 46.8034C62.9274 46.9492 63.0985 47.0651 63.2873 47.1441C63.476 47.2232 63.6786 47.2639 63.8832 47.2639H68.0592C68.2638 47.2638 68.4662 47.2229 68.6548 47.1438C68.8434 47.0647 69.0144 46.9488 69.1578 46.8029C69.3012 46.6571 69.4142 46.4842 69.4901 46.2942C69.566 46.1043 69.6034 45.9012 69.6 45.6967ZM14.4492 45.6967C14.4492 44.8627 13.7868 44.1787 12.9516 44.1547H8.74204C7.89003 44.1547 7.20004 44.8447 7.20004 45.6967C7.19669 45.9013 7.23411 46.1045 7.3101 46.2945C7.38609 46.4845 7.49915 46.6575 7.64267 46.8034C7.78619 46.9492 7.95731 47.0651 8.14606 47.1441C8.3348 47.2232 8.5374 47.2639 8.74204 47.2639H12.9516C13.3573 47.2523 13.7419 47.0812 14.0223 46.7878C14.3026 46.4945 14.456 46.1024 14.4492 45.6967ZM39.996 20.1523V15.9595C39.996 15.1111 39.3108 14.4223 38.4624 14.4175C38.0551 14.42 37.6654 14.5836 37.3783 14.8725C37.0912 15.1614 36.93 15.5522 36.93 15.9595V20.1343C36.906 20.9791 37.566 21.6859 38.4096 21.7195C38.6158 21.7196 38.8199 21.6783 39.0099 21.5981C39.1998 21.5179 39.3718 21.4005 39.5156 21.2527C39.6593 21.1049 39.772 20.9298 39.8469 20.7377C39.9218 20.5456 39.9574 20.3404 39.9516 20.1343L39.996 20.1523ZM21.4536 28.7671C22.0536 28.1623 22.0536 27.1867 21.4536 26.5831L18.5112 23.6311C18.3694 23.4865 18.2001 23.3716 18.0133 23.2932C17.8265 23.2148 17.626 23.1744 17.4234 23.1744C17.2209 23.1744 17.0203 23.2148 16.8336 23.2932C16.6468 23.3716 16.4775 23.4865 16.3356 23.6311C15.7356 24.2359 15.7356 25.2115 16.3356 25.8151L19.278 28.7671C19.4199 28.9117 19.5892 29.0265 19.776 29.1049C19.9627 29.1833 20.1633 29.2237 20.3658 29.2237C20.5684 29.2237 20.7689 29.1833 20.9557 29.1049C21.1425 29.0265 21.3118 28.9117 21.4536 28.7671ZM17.208 37.5043L17.568 36.6235C17.6466 36.4306 17.6861 36.224 17.6843 36.0157C17.6826 35.8074 17.6396 35.6015 17.5578 35.4099C17.476 35.2183 17.3571 35.0449 17.2078 34.8995C17.0586 34.7542 16.8821 34.6398 16.6884 34.5631L10.6536 32.0695C10.4611 31.9923 10.2552 31.9538 10.0478 31.9563C9.84037 31.9588 9.63548 32.0022 9.44485 32.0841C9.25423 32.1659 9.08163 32.2845 8.93694 32.4332C8.79224 32.5818 8.6783 32.7575 8.60164 32.9503L8.23924 33.8311C8.1617 34.0243 8.12297 34.2309 8.12527 34.439C8.12757 34.6472 8.17086 34.8529 8.25265 35.0443C8.33444 35.2357 8.45313 35.4092 8.60196 35.5548C8.75079 35.7003 8.92683 35.8152 9.12004 35.8927L15.1548 38.3767C15.3494 38.4541 15.5575 38.4918 15.7669 38.4876C15.9763 38.4833 16.1827 38.4371 16.374 38.3518C16.5653 38.2664 16.7375 38.1437 16.8805 37.9907C17.0236 37.8377 17.1345 37.6576 17.2068 37.4611V37.5043H17.208ZM49.5792 23.9395L52.0548 17.9059C52.1324 17.7127 52.1711 17.5061 52.1688 17.2979C52.1665 17.0898 52.1232 16.8841 52.0414 16.6927C51.9596 16.5012 51.8409 16.3278 51.6921 16.1822C51.5433 16.0366 51.3672 15.9218 51.174 15.8443L50.2932 15.4843C50.1009 15.4059 49.8949 15.3665 49.6872 15.3684C49.4795 15.3702 49.2743 15.4133 49.0834 15.4951C48.8925 15.577 48.7197 15.6959 48.5752 15.845C48.4306 15.9942 48.3171 16.1705 48.2412 16.3639L45.7656 22.3975C45.687 22.5906 45.6473 22.7973 45.6491 23.0058C45.6508 23.2143 45.6939 23.4204 45.7758 23.6121C45.8577 23.8038 45.9769 23.9774 46.1263 24.1228C46.2757 24.2682 46.4525 24.3825 46.6464 24.4591L47.5272 24.8287C47.7203 24.9057 47.9267 24.9437 48.1345 24.9406C48.3423 24.9376 48.5474 24.8934 48.7381 24.8108C48.9288 24.7282 49.1013 24.6086 49.2457 24.4591C49.39 24.3096 49.5034 24.133 49.5792 23.9395ZM29.2056 24.8203L30.0864 24.4507C30.2807 24.3732 30.4576 24.2581 30.6071 24.1119C30.7567 23.9657 30.8758 23.7914 30.9577 23.599C31.0395 23.4066 31.0825 23.1999 31.0842 22.9908C31.0858 22.7817 31.0461 22.5744 30.9672 22.3807L28.4568 16.3555C28.3811 16.162 28.2677 15.9855 28.1232 15.8363C27.9786 15.687 27.8059 15.568 27.615 15.486C27.4241 15.4041 27.2188 15.3609 27.0111 15.3589C26.8033 15.357 26.5972 15.3963 26.4048 15.4747L25.5228 15.8443C25.3289 15.9209 25.1521 16.0352 25.0027 16.1806C24.8533 16.326 24.7341 16.4995 24.6522 16.6913C24.5703 16.883 24.5272 17.0891 24.5255 17.2976C24.5237 17.506 24.5633 17.7128 24.642 17.9059L27.144 23.9395C27.2179 24.1357 27.3304 24.3151 27.4749 24.4671C27.6193 24.6191 27.7928 24.7406 27.985 24.8244C28.1772 24.9082 28.3842 24.9526 28.5939 24.955C28.8036 24.9573 29.0116 24.9177 29.2056 24.8383V24.8203ZM30.606 50.3647C29.4992 50.0573 28.3537 49.9118 27.2052 49.9327C24.9324 49.9327 22.5732 50.9995 22.5732 53.8003C22.5732 55.8619 24.1308 56.8567 26.0952 57.6403C27.7248 58.2835 28.3068 58.6807 28.3068 59.4031C28.3068 60.1255 27.7068 60.5827 26.3604 60.5827C25.2526 60.5575 24.1556 60.3583 23.1096 59.9923L22.6428 62.5555C23.9076 62.9407 25.2228 63.1339 26.5452 63.1291C29.1876 63.1291 31.4424 61.8247 31.4424 59.2795C31.4508 56.9539 29.9004 56.0731 27.9276 55.2715C26.4036 54.6367 25.6548 54.2935 25.6548 53.5099C25.6548 52.7263 26.4744 52.4443 27.4164 52.4443C28.3137 52.4453 29.2054 52.585 30.06 52.8583L30.606 50.3647ZM40.5684 50.3647C39.4588 50.0569 38.3105 49.9114 37.1592 49.9327C34.8864 49.9327 32.526 50.9995 32.526 53.8003C32.526 55.8619 34.086 56.8567 36.0492 57.6403C37.6788 58.2835 38.2692 58.6807 38.2692 59.4031C38.2692 60.1255 37.6176 60.6535 36.3048 60.6535C35.2 60.6296 34.1059 60.4304 33.0636 60.0631L32.5608 62.5555C33.8256 62.9407 35.1408 63.1339 36.4632 63.1291C39.1056 63.1291 41.3604 61.8247 41.3604 59.2795C41.3604 56.9275 39.8544 56.1079 37.8996 55.2715C36.3756 54.6367 35.6352 54.2935 35.6352 53.5099C35.6352 52.7263 36.4452 52.4443 37.3968 52.4443C38.2944 52.4443 39.1848 52.5847 40.0392 52.8583L40.5684 50.3647ZM43.0164 62.8639H47.6844C51.9564 62.8639 54.1416 60.3715 54.1416 56.4163C54.1416 52.4611 51.9756 50.1451 47.6856 50.1451H43.0176V62.8651L43.0164 62.8639ZM46.1172 52.6195H47.2356C49.9668 52.6195 51.0324 54.2227 51.0324 56.4871C51.0324 58.7503 49.9488 60.4771 47.2356 60.4771H46.1172V52.6195ZM64.9236 34.3867C65.0916 34.3747 65.2596 34.3747 65.4252 34.3867C65.908 34.3751 66.3866 34.4785 66.8216 34.6881C67.2566 34.8978 67.6355 35.2078 67.9272 35.5927C68.5296 35.1679 68.7576 34.3807 68.4732 33.6991L68.1036 32.8183C68.0279 32.6248 67.9145 32.4483 67.77 32.2991C67.6254 32.1498 67.4527 32.0308 67.2618 31.9488C67.0709 31.8669 66.8656 31.8237 66.6579 31.8217C66.4501 31.8198 66.244 31.8591 66.0516 31.9375L60.0264 34.4479C59.7179 34.5828 59.4591 34.8106 59.286 35.0995L64.9236 34.3867ZM65.5404 38.0767C66.9408 37.6447 66.6324 36.2095 65.1792 36.3943L38.1456 39.7783C37.4064 39.8743 36.8424 40.4023 36.9576 40.9135L37.4496 43.2391L37.9428 45.5647C38.058 46.0759 38.8236 46.3303 39.5028 46.1107L65.5404 38.0767Z" fill="white"/>
</svg>
