<svg width="77" height="78" viewBox="0 0 77 78" fill="none" xmlns="http://www.w3.org/2000/svg">
<path fill-rule="evenodd" clip-rule="evenodd" d="M66.8712 44.1823C66.1422 38.0756 64.4398 32.125 61.8288 26.5567C61.0896 24.9139 58.5432 20.1175 52.5312 20.1175C50.1408 20.1175 48.0216 21.4483 45.9024 22.8283C45.9024 22.8283 42.3552 22.5739 39.012 22.5739C35.6688 22.5739 32.1048 22.8283 32.1048 22.8283C29.9856 21.4483 27.8664 20.1175 25.476 20.1175C19.5048 20.1175 16.9176 24.9391 16.1784 26.5567C13.5641 32.1245 11.8585 38.075 11.1264 44.1823C10.6836 47.5579 10.1088 55.4839 13.7556 57.9487C14.9136 58.7695 20.6052 59.4511 21.1476 59.1559C22.5684 58.3339 24.0228 51.7639 26.142 48.3223C26.484 47.5904 27.032 46.9741 27.7188 46.5487C28.5396 46.0555 29.8128 46.1539 32.0304 46.1539H45.9936C48.2112 46.1539 49.4844 46.0555 50.3052 46.5487C50.9916 46.9735 51.5412 47.5903 51.882 48.3223C53.994 51.7723 55.446 58.3423 56.8764 59.1559C57.3924 59.4511 63.0852 58.7359 64.2684 57.9487C67.89 55.4839 67.314 47.5579 66.8712 44.1823ZM25.8048 33.2743H23.1432C22.9735 33.2237 22.8247 33.1198 22.7189 32.9778C22.613 32.8359 22.5559 32.6635 22.5559 32.4865C22.5559 32.3094 22.613 32.1371 22.7189 31.9952C22.8247 31.8532 22.9735 31.7492 23.1432 31.6987H25.7712C25.9262 31.7012 26.0798 31.6702 26.2217 31.6079C26.3635 31.5455 26.4903 31.4533 26.5932 31.3375L28.236 29.5459C28.7826 28.9494 29.5396 28.5886 30.3471 28.5396C31.1546 28.4906 31.9497 28.7572 32.5644 29.2831L33.9852 30.4831C34.434 30.8599 35.0892 30.8599 35.538 30.4831L37.344 29.0131C37.8989 28.5585 38.5941 28.3101 39.3114 28.3101C40.0287 28.3101 40.7239 28.5585 41.2788 29.0131L43.1592 30.5071C43.6032 30.8815 44.2512 30.8815 44.6952 30.5071L46.2228 29.2831C46.8391 28.7565 47.6369 28.4918 48.4457 28.5456C49.2545 28.5994 50.0102 28.9675 50.5512 29.5711L52.1952 31.3447C52.404 31.5763 52.704 31.7047 53.016 31.6987H55.8576C56.0285 31.7482 56.1786 31.8518 56.2854 31.994C56.3923 32.1362 56.4501 32.3092 56.4501 32.4871C56.4501 32.6649 56.3923 32.838 56.2854 32.9802C56.1786 33.1224 56.0285 33.226 55.8576 33.2755H52.9824C52.632 33.2736 52.2858 33.1996 51.9652 33.0582C51.6446 32.9168 51.3565 32.711 51.1188 32.4535L49.4748 30.6799C49.1813 30.3523 48.7713 30.1525 48.3324 30.1234C47.8935 30.0942 47.4607 30.238 47.1264 30.5239L45.6732 31.7395C45.2013 32.1318 44.6069 32.3466 43.9932 32.3466C43.3795 32.3466 42.7851 32.1318 42.3132 31.7395L40.4328 30.2359C40.1311 29.9903 39.7539 29.8562 39.3648 29.8562C38.9758 29.8562 38.5986 29.9903 38.2968 30.2359L36.4908 31.7071C36.0178 32.1072 35.4184 32.3268 34.7988 32.3268C34.1793 32.3268 33.5798 32.1072 33.1068 31.7071L31.686 30.5071C31.3519 30.2218 30.9198 30.0777 30.4813 30.1053C30.0428 30.1328 29.6322 30.3298 29.3364 30.6547L27.6936 32.4463C27.2016 32.9791 26.5056 33.2791 25.7796 33.2743H25.8048ZM56.7696 40.1335C56.7748 40.2704 56.7528 40.407 56.7048 40.5353C56.6568 40.6637 56.5838 40.7812 56.49 40.8811C56.4013 40.9811 56.2925 41.0613 56.1707 41.1165C56.0489 41.1717 55.9169 41.2007 55.7832 41.2015H54.6168C54.2311 41.1999 53.8498 41.1188 53.4967 40.9634C53.1437 40.8079 52.8264 40.5814 52.5648 40.2979L50.4696 38.1211C50.1744 37.7912 49.7621 37.5894 49.3204 37.5587C48.8787 37.528 48.4425 37.6708 48.1044 37.9567L46.4604 39.3127C45.9105 39.7796 45.2145 40.0393 44.4932 40.0467C43.7718 40.0542 43.0706 39.8089 42.5112 39.3535L40.4244 37.7095C40.1214 37.4599 39.7411 37.3234 39.3486 37.3234C38.9561 37.3234 38.5758 37.4599 38.2728 37.7095L36.2604 39.3535C35.7045 39.8231 35.0003 40.0807 34.2726 40.0807C33.5449 40.0807 32.8407 39.8231 32.2848 39.3535L30.7164 37.9567C30.3796 37.6707 29.9451 37.5264 29.5041 37.5539C29.0631 37.5814 28.6499 37.7787 28.3512 38.1043L26.304 40.2895C26.0466 40.5777 25.7334 40.8107 25.3834 40.9745C25.0334 41.1383 24.6538 41.2294 24.2676 41.2423H23.2236C23.0882 41.24 22.9546 41.2109 22.8305 41.1567C22.7063 41.1025 22.5941 41.0243 22.5003 40.9266C22.4065 40.8289 22.333 40.7136 22.2839 40.5874C22.2349 40.4612 22.2112 40.3265 22.2144 40.1911C22.2057 40.0514 22.2251 39.9114 22.2715 39.7794C22.3179 39.6474 22.3904 39.5261 22.4847 39.4226C22.579 39.3192 22.6931 39.2358 22.8202 39.1773C22.9473 39.1188 23.0849 39.0865 23.2248 39.0823H24.2676C24.3827 39.0736 24.4949 39.0423 24.5978 38.9902C24.7008 38.9381 24.7924 38.8662 24.8676 38.7787L26.9124 36.6019C27.5517 35.9037 28.4383 35.4828 29.3834 35.429C30.3285 35.3752 31.2573 35.6927 31.9716 36.3139L33.5484 37.6459C33.758 37.8248 34.0246 37.9231 34.3002 37.9231C34.5758 37.9231 34.8424 37.8248 35.052 37.6459L37.0644 36.0019C37.7132 35.4743 38.5238 35.1863 39.36 35.1863C40.1962 35.1863 41.0069 35.4743 41.6556 36.0019L43.7412 37.6459C43.951 37.821 44.2156 37.917 44.4888 37.917C44.7621 37.917 45.0267 37.821 45.2364 37.6459L46.8792 36.2899C47.5986 35.6798 48.5273 35.3736 49.4685 35.4363C50.4097 35.4991 51.2895 35.9257 51.9216 36.6259L53.9676 38.8195C54.0452 38.9056 54.1402 38.9743 54.2464 39.021C54.3525 39.0678 54.4673 39.0915 54.5832 39.0907H55.758C56.0259 39.1013 56.279 39.2164 56.4632 39.4113C56.6473 39.6062 56.7478 39.8654 56.7432 40.1335H56.7672H56.7696Z" fill="white"/>
</svg>
