<svg width="77" height="78" viewBox="0 0 77 78" fill="none" xmlns="http://www.w3.org/2000/svg">
<path fill-rule="evenodd" clip-rule="evenodd" d="M67.2 48.1459V51.7447C67.2011 52.6926 67.0149 53.6313 66.6522 54.507C66.2895 55.3828 65.7573 56.1782 65.0863 56.8477C64.4153 57.5171 63.6186 58.0474 62.742 58.4081C61.8655 58.7688 60.9263 58.9528 59.9784 58.9495H58.8C58.1642 58.9476 57.5551 58.6936 57.1063 58.2432C56.6575 57.7929 56.4057 57.1829 56.406 56.5471V42.3103C56.406 32.6995 48.6156 24.9091 39.006 24.9091C29.394 24.9091 21.6036 32.6995 21.6036 42.3103V56.5471C21.6038 56.8624 21.5418 57.1747 21.4213 57.4661C21.3007 57.7575 21.124 58.0222 20.9011 58.2453C20.6783 58.4684 20.4137 58.6454 20.1224 58.7662C19.8311 58.8871 19.5189 58.9493 19.2036 58.9495H17.9976C17.0517 58.9496 16.1151 58.7633 15.2413 58.4012C14.3675 58.0391 13.5737 57.5083 12.9052 56.8392C12.2367 56.17 11.7067 55.3756 11.3455 54.5015C10.9843 53.6273 10.7989 52.6905 10.8 51.7447V48.1459C10.8004 46.4343 11.4116 44.779 12.5236 43.4779C13.6356 42.1767 15.1754 41.315 16.866 41.0479C16.866 28.8259 26.772 18.9175 38.9964 18.9175C51.2184 18.9175 61.1268 28.8259 61.1268 41.0479C62.8194 41.3119 64.3619 42.1724 65.4757 43.4741C66.5894 44.7758 67.201 46.4328 67.2 48.1459ZM29.3892 52.8919H30.8568C32.6028 52.8919 34.176 53.2771 34.176 54.7771C34.176 56.1211 33.1032 56.7523 31.62 56.7523C30.4478 56.7281 29.2949 56.4484 28.242 55.9327L27.57 58.0639C28.8852 58.6639 30.3132 58.9711 31.758 58.9651C34.6188 58.9651 36.9636 57.7027 36.9636 54.8179C36.981 54.0509 36.7198 53.3037 36.2284 52.7146C35.737 52.1255 35.0488 51.7344 34.2912 51.6139C34.9849 51.4312 35.5954 51.0171 36.0216 50.4401C36.4478 49.8631 36.6642 49.1578 36.6348 48.4411C36.6348 45.9091 34.4628 44.8351 31.9632 44.8351C30.5759 44.8152 29.2006 45.0947 27.9312 45.6547L28.6272 47.8267C29.5658 47.3444 30.6044 47.0888 31.6596 47.0803C32.9472 47.0803 33.8316 47.6383 33.8316 48.7939C33.8316 50.2111 32.5044 50.6539 30.8892 50.6539H29.3892V52.8919ZM39.4872 58.7275H44.1516C48.6432 58.7275 51.0696 56.0563 51.0696 51.8095C51.0696 47.5639 48.6672 45.0151 44.1516 45.0151H39.4872V58.7275ZM42.2904 47.2531H43.7496C46.8816 47.2531 48.2664 49.0975 48.2664 51.8431C48.2664 54.5887 46.8648 56.4823 43.7664 56.4823H42.3072L42.2904 47.2531Z" fill="white"/>
</svg>
