<svg width="77" height="78" viewBox="0 0 77 78" fill="none" xmlns="http://www.w3.org/2000/svg">
<path fill-rule="evenodd" clip-rule="evenodd" d="M54.9648 35.1379C54.9072 36.2095 53.9004 37.0519 52.68 37.0519H51.318C50.0964 37.0519 49.0896 36.2095 49.032 35.1379L48.876 32.2615C48.8148 31.1155 49.8552 30.1579 51.162 30.1579H52.8348C54.1416 30.1579 55.182 31.1155 55.1208 32.2615L54.9648 35.1379ZM27.1224 35.1379C27.0648 36.2095 26.0592 37.0519 24.8364 37.0519H23.4744C22.254 37.0519 21.2472 36.2095 21.1896 35.1379L21.0336 32.2615C20.9724 31.1155 22.0128 30.1579 23.3196 30.1579H24.9936C26.2992 30.1579 27.3408 31.1155 27.2784 32.2615L27.1224 35.1379ZM59.4564 33.4291C59.0266 32.4984 58.4789 31.6269 57.8268 30.8359C56.8908 29.7115 55.5528 28.5703 53.6988 27.9679C52.7862 27.6762 51.8333 27.5304 50.8752 27.5359C48.6708 27.5359 46.716 28.7527 44.7624 30.0151C44.7624 30.0151 41.4888 29.7871 38.412 29.7871C35.3424 29.7871 32.0376 30.0151 32.0376 30.0151C30.084 28.7527 28.1292 27.5359 25.9248 27.5359C24.8736 27.5359 23.9364 27.6991 23.1024 27.9679C21.2472 28.5703 19.908 29.7115 18.9732 30.8359C18.3209 31.6263 17.7731 32.4974 17.3436 33.4279C16.248 35.7991 13.8432 40.9471 12.6852 49.5559C12.2772 52.6423 11.7456 59.8975 15.1092 62.1511C16.1772 62.8675 21.426 63.5263 21.9024 63.2551C23.2212 62.5111 24.5616 56.4955 26.5164 53.3395V53.3179C26.9592 52.5643 27.2388 52.1275 27.9696 51.6943C28.7232 51.2491 29.9016 51.3343 31.9464 51.3343H44.8536C46.8984 51.3343 48.0768 51.2491 48.8304 51.6943C49.5612 52.1263 49.8408 52.5643 50.2836 53.3179V53.3395C52.2384 56.4955 53.5788 62.5123 54.8976 63.2551C55.374 63.5263 60.624 62.8675 61.692 62.1511C65.0544 59.8975 64.524 52.6423 64.116 49.5559C62.9568 40.9471 60.552 35.7991 59.4564 33.4279V33.4291ZM57.36 14.1175L55.1244 17.2855C57.6468 17.7651 60.04 18.7697 62.1489 20.2342C64.2578 21.6987 66.0352 23.5904 67.3656 25.7863L69.6 22.6183C66.6375 18.4427 62.3073 15.4354 57.36 14.1175ZM53.226 19.9759L50.9892 23.1439C53.5113 23.6232 55.9044 24.6276 58.0132 26.092C60.1219 27.5563 61.899 29.4477 63.2292 31.6435L65.466 28.4755C62.5034 24.3002 58.1732 21.2933 53.226 19.9759ZM25.812 23.2543L23.5764 20.0863C18.6292 21.4043 14.2991 24.4117 11.3364 28.5871L13.5708 31.7551C14.901 29.559 16.6783 27.6672 18.7872 26.2027C20.8962 24.7381 23.2896 23.7336 25.812 23.2543ZM21.6768 17.3959L19.4412 14.2279C14.4933 15.5463 10.1626 18.5545 7.20001 22.7311L9.43681 25.8991C10.7669 23.703 12.544 21.8111 14.6527 20.3464C16.7614 18.8817 19.1545 17.8756 21.6768 17.3959Z" fill="white"/>
</svg>
