<svg width="77" height="78" viewBox="0 0 77 78" fill="none" xmlns="http://www.w3.org/2000/svg">
<path fill-rule="evenodd" clip-rule="evenodd" d="M36.5784 36.1099H34.5492V39.9847H30.75V36.1099H22.1676V32.4031L29.2764 21.3751H34.5492V33.0703H36.57L36.5784 36.1099ZM49.452 39.9847L43.1592 30.7159H43.1028V39.9847H39.3036V21.4483H43.1028V30.1423H43.1592L49.2756 21.4303H53.7984L47.19 30.4111L54.1416 40.0027L49.452 39.9847ZM25.632 33.0703H30.7572V24.8227H30.702L25.632 33.0703ZM43.9452 59.1031C44.9819 61.1083 46.2246 63.0001 47.6532 64.7479C48.6535 65.7335 50.0013 66.2861 51.4056 66.2863C52.2492 66.2863 54.9456 66.2863 54.7704 63.5059C54.6024 60.8371 52.9164 50.3179 52.8516 50.2531C52.5661 48.8325 51.8059 47.5513 50.6959 46.6199C49.5859 45.6885 48.1922 45.1624 46.7436 45.1279C44.7888 45.1279 43.1196 46.5079 41.4252 47.5555H34.8816C33.1764 46.5091 31.518 45.1279 29.562 45.1279C28.111 45.1592 26.7136 45.6824 25.5989 46.6118C24.4841 47.5413 23.7181 48.8218 23.4264 50.2435C23.4264 50.3083 21.7032 60.8275 21.5736 63.5059C21.3972 66.2863 24.0936 66.2863 24.9372 66.2863C26.3509 66.2861 27.7069 65.726 28.7088 64.7287C30.1374 62.9813 31.3801 61.0899 32.4168 59.0851L43.9452 59.1031ZM69.5448 18.4375V18.2059C69.5448 17.9659 69.4704 17.7427 69.4152 17.5111C69.4099 17.4616 69.4099 17.4118 69.4152 17.3623C69.34 17.1005 69.2564 16.8411 69.1644 16.5847L69.0804 16.3987C68.9974 16.1968 68.9049 15.999 68.8032 15.8059C68.7687 15.7458 68.7379 15.6837 68.7108 15.6199C68.5797 15.3859 68.4342 15.1603 68.2752 14.9443L68.1912 14.8243L67.9224 14.4811L67.7748 14.3131L67.5792 14.1007L67.1628 13.7023L66.9684 13.5163C66.7551 13.3414 66.5353 13.1745 66.3096 13.0159C65.9007 12.7428 65.4663 12.5101 65.0124 12.3211C64.7104 12.1945 64.4011 12.0863 64.086 11.9971L63.8448 11.9407L63.6048 11.8759C63.0978 11.7717 62.5816 11.7186 62.064 11.7175H14.7528C14.2368 11.7175 13.7208 11.7703 13.2144 11.8747L12.9648 11.9395L12.7236 11.9959C12.408 12.0847 12.0996 12.1927 11.7972 12.3199C11.0857 12.6116 10.4254 13.0151 9.84121 13.5151L9.64681 13.7011C9.50096 13.8267 9.36158 13.9597 9.22921 14.0995L9.02521 14.3119L8.87761 14.4799C8.78521 14.5903 8.70121 14.7115 8.61841 14.8219C8.42605 15.0742 8.25277 15.3406 8.10001 15.6187C8.06401 15.6787 8.03401 15.7411 8.00641 15.8047C7.90429 15.9978 7.81139 16.1956 7.72801 16.3975L7.64401 16.5835C7.54518 16.8384 7.45868 17.0979 7.38481 17.3611V17.5099C7.32841 17.7379 7.28401 17.9707 7.25521 18.2059C7.2501 18.2826 7.2501 18.3596 7.25521 18.4363C7.25521 18.7147 7.20001 19.0015 7.20001 19.2883V48.7243C7.20954 50.7408 8.01925 52.6711 9.45123 54.0909C10.8832 55.5107 12.8203 56.304 14.8368 56.2963H18.7944C18.9984 54.9703 19.2024 53.6635 19.3776 52.5883H14.7444C13.7209 52.5912 12.738 52.1878 12.0115 51.4667C11.2851 50.7457 10.8744 49.7658 10.8696 48.7423V19.2895C10.8708 19.0591 10.896 18.8287 10.944 18.6031V18.4279L11.0088 18.1951C11.0292 18.1207 11.0544 18.0463 11.0832 17.9731C11.1084 17.8999 11.1396 17.8291 11.1756 17.7595C11.2008 17.6875 11.232 17.6155 11.268 17.5471C11.3054 17.4776 11.3455 17.4096 11.388 17.3431C11.4264 17.2759 11.466 17.2111 11.5092 17.1487L11.6484 16.9627L11.7876 16.7875L11.9448 16.6111L12.1128 16.4539L12.2976 16.3051L12.4728 16.1659L12.6492 16.0543C12.7413 15.9923 12.8376 15.9365 12.9372 15.8875L13.1124 15.8035L13.326 15.7207C13.4844 15.6607 13.6452 15.6079 13.8084 15.5647L14.0124 15.5167C14.244 15.4771 14.4804 15.4555 14.7156 15.4519H61.9824C62.2152 15.4543 62.448 15.4759 62.6772 15.5167L62.8812 15.5647C63.0444 15.6067 63.2052 15.6595 63.3624 15.7207C63.438 15.7447 63.5124 15.7723 63.5856 15.8047L63.7524 15.8887C63.8544 15.9367 63.954 15.9919 64.0488 16.0543L64.2156 16.1659L64.4004 16.3051L64.5768 16.4539L64.7448 16.6099C64.8012 16.6651 64.8528 16.7239 64.9008 16.7875C64.956 16.8415 65.0052 16.9003 65.0496 16.9627L65.1888 17.1487L65.3088 17.3431L65.4204 17.5471C65.46 17.6155 65.4936 17.6863 65.5224 17.7595C65.5224 17.8255 65.5872 17.8987 65.6148 17.9731C65.6412 18.0451 65.6628 18.1207 65.6796 18.1951C65.7055 18.2714 65.7272 18.3492 65.7444 18.4279C65.7496 18.4862 65.7496 18.5448 65.7444 18.6031C65.7876 18.8299 65.8128 19.0591 65.8188 19.2895V48.7231C65.8144 49.7466 65.404 50.7266 64.6778 51.4479C63.9515 52.1692 62.9688 52.5728 61.9452 52.5703H56.9592C57.1344 53.6635 57.3384 54.9703 57.5328 56.2771H61.9728C62.9708 56.2807 63.9597 56.0877 64.8832 55.7092C65.8066 55.3306 66.6464 54.7739 67.3546 54.0708C68.0629 53.3676 68.6257 52.5319 69.011 51.6112C69.3962 50.6906 69.5964 49.7031 69.6 48.7051V19.2895C69.6 19.0039 69.582 18.7195 69.5448 18.4375Z" fill="white"/>
</svg>
